PathFileType	4	(X/Y/Z)	pose_F01_0-96.trc
DataRate	CameraRate	NumFrames	NumMarkers	Units	OrigDataRate	OrigDataStartFrame	OrigNumFrames
30	30	14	21	m	30	48	96
Frame#	Time	CHip			RHip			RKnee			RAnkle			RBigToe			RSmallToe			RHeel			LHip			LKnee			LAnkle			LBigToe			LSmallToe			LHeel			Neck			Nose			RShoulder			RElbow			RWrist			LShoulder			LElbow			LWrist			
		X1	Y1	Z1	X2	Y2	Z2	X3	Y3	Z3	X4	Y4	Z4	X5	Y5	Z5	X6	Y6	Z6	X7	Y7	Z7	X8	Y8	Z8	X9	Y9	Z9	X10	Y10	Z10	X11	Y11	Z11	X12	Y12	Z12	X13	Y13	Z13	X14	Y14	Z14	X15	Y15	Z15	X16	Y16	Z16	X17	Y17	Z17	X18	Y18	Z18	X19	Y19	Z19	X20	Y20	Z20	X21	Y21	Z21	
48	1.6	-0.28210265993993155	1.8838676656470734	-0.670599710193858	-0.2971183858632225	1.8827960058698825	-0.6092022005539743	-0.24592887861894563	1.6953768014407875	-0.4441117231574156													-1.210473661924733	1.7890879017930543	0.1851552385267451	-0.22263336777192558	1.7227591541157514	-0.6046296733483204													-0.281921466030428	2.040532488476624	-0.6930386798147994	-0.2756983498474807	2.0939906125214987	-0.6489426111547463	-0.3008007704290999	2.0385393545170083	-0.6092036342334453	-0.31414835205385466	1.9992338234434557	-0.48238560496260063	-0.29000108164693006	2.0684807147921607	-0.5661072713870683	-0.2585925378474763	2.0450662387763923	-0.7790609285481666	-0.23523113718184946	1.9689167656917819	-0.8464397191738475	-0.22495780858291492	1.991947437494904	-0.7616963164534432
49	1.6333333333333333	-0.2816247469371448	1.8850908730182698	-0.6707047393344145	-0.29683622591755443	1.8826018088053886	-0.6091796957931201	-0.24592887861894563	1.6953768014407875	-0.4441117231574156													-1.2081919968702448	1.7873014131094254	0.18221069576635004	-0.22263336777192558	1.7227591541157514	-0.6046296733483204													-0.28070394188470826	2.041277232508233	-0.6981571380157812	-0.2778523107312732	2.095508887785743	-0.6472839434840417	-0.30173836735722814	2.0372860087694633	-0.6119474459527233	-0.316232584570721	1.9939916010059504	-0.48737862772829615	-0.29714229173586426	2.05362303397204	-0.5680316467323212	-0.2572291248943809	2.04538609867308	-0.7841437842753334	-0.2351848821500522	1.9684093445955202	-0.8464057721152087	-0.22588998535748758	1.9881412342940434	-0.7645245548458466
50	1.6666666666666667	-0.28295119026734183	1.8837769725144855	-0.6734534133915119	-0.29823321781031975	1.8812018216947373	-0.6119515430978676	-0.24592887861894563	1.6953768014407875	-0.4441117231574156													-0.2698311052877471	1.8838959318195303	-0.7355745703795435	-0.22263336777192558	1.7227591541157514	-0.6046296733483204													-0.28083918283930726	2.040233151496478	-0.6983238091879116	-0.27878145810416993	2.0956333211311815	-0.650376781184079	-0.30071386006133394	2.037389355475004	-0.617027995289258	-0.31372159993410814	1.988911405073465	-0.5025466345530458	-0.304931971073066	2.043196501837947	-0.5727146556784303	-0.260251858895408	2.0451535318986003	-0.7849791532307691	-0.2344873148289861	1.9680749069574863	-0.8434195535981527	-0.22337438349026909	1.9871818041362213	-0.7550681200899438
51	1.7	-0.28268738823551115	1.8868244329497854	-0.6821754079277432	-0.2971888022800434	1.8843973682857467	-0.6179767981586493	-0.24592887861894563	1.6953768014407875	-0.4441117231574156													-1.2082397540817307	1.7888833122717855	0.1776106310800964	-0.22263336777192558	1.7227591541157514	-0.6046296733483204													-0.2848945765646217	2.039109201099019	-0.7022408598145711	-0.27857301130762685	2.0920515218205944	-0.6578830649708063	-0.30410636994701795	2.0343849447942675	-0.6183991362004639	-0.3110272173940845	1.9831365531392213	-0.5178496613186923	-0.30379055252446896	2.0392917750347865	-0.5848291223876132	-0.26130359359762495	2.0424200329070183	-0.7876344706377781	-0.23849985985242234	1.9645590281672038	-0.8356450013679373	-0.22473133385359614	1.9876486297896303	-0.7496784322258926
52	1.7333333333333334	-0.2848707225054529	1.88467113081993	-0.6881874766252637	-0.29918594248824193	1.8829143829022335	-0.6239135847963254	-0.24592887861894563	1.6953768014407875	-0.4441117231574156													-1.1979593989631114	1.7889363602868218	0.15730438271956027	-0.22263336777192558	1.7227591541157514	-0.6046296733483204													-0.2838297873871524	2.0340899903358873	-0.7067977192858929	-0.27734509950626873	2.087465058941307	-0.6711052930090471	-0.3051637052264046	2.0298995525442995	-0.6206513340743026	-0.30643572193639823	1.9712615297422025	-0.5344862657184204	-0.3045923971551985	2.0280407930579236	-0.592680492346252	-0.26010059844955397	2.0386026733057503	-0.792769581596243	-0.24022405638703684	1.961856721295901	-0.8299639811325101	-0.22535622146216566	1.98653127864649	-0.7413291772052015
53	1.7666666666666666	-0.2860957930971932	1.8765730549397832	-0.6908986984108263	-0.2993070375880445	1.87547625050375	-0.6318528432622693	-0.24592887861894563	1.6953768014407875	-0.4441117231574156													-0.2724033373837842	1.8780740929491597	-0.752611946654303	-0.22263336777192558	1.7227591541157514	-0.6046296733483204													-0.2848565315026725	2.0291313601920598	-0.7092979938285375	-0.27192473893066377	2.0851953576774793	-0.6796528241783265	-0.3040486715912315	2.026863450726771	-0.6250437000179817	-0.3009849020973811	1.9718248837139258	-0.5516312157191386	-0.28048477691390833	2.031450503741542	-0.6226888254026516	-0.2610754455850848	2.0337786673272267	-0.7953904006351465	-0.24422971163093757	1.9567667436498344	-0.833432912737666	-0.22886402269827058	1.9809312090812754	-0.7526907825912776
54	1.8	-0.2879772221201845	1.8756007043545824	-0.6968368914768692	-0.30135544167065276	1.8751973189527484	-0.6380590167045838	-0.24592887861894563	1.6953768014407875	-0.4441117231574156													-1.1783968614786466	1.7814462472462302	0.11098826642956512	-0.22263336777192558	1.7227591541157514	-0.6046296733483204													-0.2856698310002944	2.0299055403077504	-0.7119886227725888	-0.27178093209367427	2.0801985531993696	-0.6872679454057619	-0.3069458494509456	2.028685299977811	-0.6260438718156041	-0.29883411253045644	1.9729240985753138	-0.554031042056802	-0.28195000300229406	2.0327664559156893	-0.6365341180584111	-0.2627602845828083	2.0330429604729696	-0.8008031095261223	-0.24187315528252595	1.9576735881819434	-0.8466277195061748	-0.23144283097684398	1.976496247503151	-0.7612597646710824
55	1.8333333333333333	-0.28740805394165636	1.8794269897756202	-0.6973877305253117	-0.3007854902794527	1.8784225451864764	-0.6386817582604065	-0.24592887861894563	1.6953768014407875	-0.4441117231574156													-1.1808038908916647	1.7817516167207514	0.11308033530425148	-0.22263336777192558	1.7227591541157514	-0.6046296733483204													-0.2875716099900238	2.0325565881200895	-0.7186784876413611	-0.2725091255173849	2.085137029943591	-0.69086901162844	-0.30697173171293307	2.0311591692077964	-0.6349362435011425	-0.29839832343487915	1.9812925234292547	-0.5547125561272532	-0.28490162707533345	2.0390099569458013	-0.6385831919643654	-0.2635981618659912	2.0358565118171006	-0.8040786271387589	-0.24421593396023583	1.960287064528385	-0.8557887892767807	-0.23248953804171188	1.97552510650505	-0.775032131079885
56	1.8666666666666667	-0.2882004668994069	1.8870541902439906	-0.701025809455541	-0.29975494452704116	1.8851941416984201	-0.6443631836551731	-0.24592887861894563	1.6953768014407875	-0.4441117231574156													-1.187605558850621	1.787971452173074	0.12153154132146844	-0.22263336777192558	1.7227591541157514	-0.6046296733483204													-0.28528528423491795	2.037555722062542	-0.7213941781869226	-0.2733028452356592	2.0904730455672653	-0.6943576947645255	-0.3066576411212615	2.0351155386610613	-0.6354005326592325	-0.2991052718810886	1.9893289637548734	-0.5503642445267249	-0.285637636285994	2.0481069070756344	-0.6431953470356786	-0.2643263349822984	2.0398577353216343	-0.8075340561059025	-0.24475432493365562	1.9637612817912427	-0.8592001764260344	-0.23353471193171194	1.974906625965676	-0.7784390139963415
57	1.9	-0.2872104867104607	1.887767803414754	-0.6980082939382171	-0.30285060968929245	1.8862964513066391	-0.6370916691187468	-0.24592887861894563	1.6953768014407875	-0.4441117231574156													-1.1870478481835094	1.7882435567147423	0.12109330178392405	-0.22263336777192558	1.7227591541157514	-0.6046296733483204													-0.28519934543727726	2.040449043613994	-0.7216854791833669	-0.27640272367755647	2.097913226601824	-0.6879858848065253	-0.3066237120519892	2.0385156498502344	-0.6361313940005525	-0.30235054068437195	1.9972290207668333	-0.5446216877045926	-0.29978359984251246	2.0529121771970007	-0.636082661736591	-0.2640669338562595	2.044374020954046	-0.8076089649126977	-0.2449506358994194	1.9687164608582781	-0.8597818601179666	-0.23357225980069973	1.9778289102745672	-0.7790750101036751
58	1.9333333333333333	-0.28824361104408275	1.8926581276829508	-0.6934017786008377	-0.30165735545012184	1.8901421066148791	-0.6343183187418148	-0.24592887861894563	1.6953768014407875	-0.4441117231574156													-1.195014993045266	1.7898386183385107	0.13462540302394319	-0.22263336777192558	1.7227591541157514	-0.6046296733483204													-0.2871611051332929	2.0426737361817966	-0.7198130380464028	-0.27760733655055725	2.100182243338325	-0.6832944639833521	-0.3055250148755104	2.0402236574314796	-0.6329624218628441	-0.30444467275171994	2.0001169495469626	-0.5348834650474575	-0.3120109336830146	2.043436645675241	-0.6025516918764537	-0.263206708212035	2.0465151627248197	-0.8050308330538978	-0.24701994704465857	1.973402191533681	-0.8576539715614572	-0.2334268704510454	1.983203946792514	-0.779514863282801
59	1.9666666666666666	-0.2906875731109466	1.8923203951113177	-0.6911275208399417	-0.3060671864859501	1.893391014090844	-0.6302232709262381	-0.24592887861894563	1.6953768014407875	-0.4441117231574156													-1.2045818699314697	1.793551435321744	0.1504124269537925	-0.22263336777192558	1.7227591541157514	-0.6046296733483204													-0.2859883799724262	2.046075960376476	-0.7165033260876286	-0.2775555768827496	2.1013947634645187	-0.6837568374329249	-0.3043001744238036	2.0444449694727194	-0.6301924569823613	-0.30793340545314507	2.011208876896409	-0.515329341475045	-0.2965571272688771	2.0632300357954794	-0.6023010122307232	-0.2653975752306238	2.0496900775034548	-0.8033724501581448	-0.24622980799447225	1.974518588769878	-0.854957755499209	-0.23157516268041417	1.9844974439608198	-0.7735128130390801
60	2.0	-0.2900481058887563	1.8922805530811049	-0.6879838478962467	-0.30432444529858504	1.8923177245513514	-0.6238248892644207	-0.24592887861894563	1.6953768014407875	-0.4441117231574156													-1.214935029743726	1.7937088878644047	0.17081243574628088	-0.22263336777192558	1.7227591541157514	-0.6046296733483204													-0.2843082194182858	2.0453409556662203	-0.7106268679882645	-0.27657073839346513	2.1024848691971907	-0.6807199363472777	-0.3033233070539878	2.0454500172394887	-0.6269118599536774	-0.311757009586037	2.013739504006092	-0.5029687940241027	-0.2971329204084575	2.070313786682857	-0.588830011368846	-0.26364450336150047	2.0504699581042867	-0.7974974818994234	-0.24304127767778932	1.9750019594635202	-0.8541589673560318	-0.22988306853440393	1.987872482699825	-0.7680535860602979
61	2.033333333333333	-0.2913088114265167	1.8883788149288185	-0.6821047305257414	-0.3044908543664845	1.8880850023159568	-0.6149196929862373	-0.24592887861894563	1.6953768014407875	-0.4441117231574156													-1.2204236411963527	1.7916481741183823	0.18077653058755558	-0.22263336777192558	1.7227591541157514	-0.6046296733483204													-0.286480491506433	2.0461736355731266	-0.7086639625049701	-0.2786185003593852	2.107550868099882	-0.6798754393024251	-0.3076062485462389	2.045106379995947	-0.6230604083103637	-0.32043772818981786	2.0168222220313403	-0.4896196764986221	-0.2981848807416627	2.0717662012523648	-0.5751779686696926	-0.26285855979994344	2.050206989356572	-0.7944676301758509	-0.24479928023389977	1.9728365857605068	-0.8490687110841892	-0.23001762756939353	1.9889934981140542	-0.768302994969277
